<?xml version="1.0" encoding="utf-8"?>
<svg version="1.1" id="ico-youtube"
	 xmlns="http://www.w3.org/2000/svg" xmlns:xlink="http://www.w3.org/1999/xlink" x="0px" y="0px" viewBox="0 0 500 500"
	 style="enable-background:new 0 0 500 500;" xml:space="preserve">
<metadata>
	<sfw>
		<slices></slices>
		<sliceSourceBounds  bottomLeftOrigin="true" height="500" width="500" x="-237" y="-237"></sliceSourceBounds>
	</sfw>
</metadata>
<path d="M250,0C112.1,0,0,112.1,0,250c0,137.9,112.1,250,250,250s250-112.1,250-250C500,112.1,387.9,0,250,0z M399.7,290.1
	c0,35.5-28.8,64.2-64.2,64.2H168.9c-35.5,0-64.2-28.8-64.2-64.2v-78.1c0-35.5,28.8-64.2,64.2-64.2h166.5c35.5,0,64.2,28.8,64.2,64.2
	V290.1z"/>
<path d="M218.4,208.8c-2.9-1.6-5.6,0.5-5.6,3.8v74.8c0,3.3,2.6,5.4,5.5,3.8l66.4-36.5c3-1.6,3.5-5.9,0.5-7.6L218.4,208.8z"/>
</svg>
