<?xml version="1.0" encoding="utf-8"?>
<svg version="1.1" id="ico-facebook"
	 xmlns="http://www.w3.org/2000/svg" xmlns:xlink="http://www.w3.org/1999/xlink" x="0px" y="0px" viewBox="0 0 500 500"
	 style="enable-background:new 0 0 500 500;" xml:space="preserve">
<metadata>
	<sfw>
		<slices></slices>
		<sliceSourceBounds  bottomLeftOrigin="true" height="500" width="500" x="-237" y="-237"></sliceSourceBounds>
	</sfw>
</metadata>
<path d="M250,0C112.1,0,0,112.1,0,250c0,137.9,112.1,250,250,250c137.9,0,250-112.1,250-250C500.1,112.1,387.9,0,250,0z
	 M319.3,148.3c0,2.1-1.7,3.8-3.8,3.8h-30c-7.4,0-13.4,6-13.4,13.4V197h42.8c2.2,0,3.9,1.9,3.8,4.1l-3.8,44.3
	c-0.2,1.9-1.8,3.5-3.8,3.5h-39v147.3c0,2.1-1.6,3.8-3.8,3.8h-53.8c-2.1,0-3.8-1.6-3.8-3.8v-145v-2.4H184c-2.1,0-3.8-1.7-3.8-3.8
	v-44.3c0-2.1,1.6-3.8,3.8-3.8h26.9v-42.8c0-29.8,24.2-54,54-54h50.8c2.1,0,3.8,1.6,3.8,3.8L319.3,148.3L319.3,148.3z"/>
</svg>
