<?xml version="1.0" encoding="utf-8"?>
<svg version="1.1" id="ico-instagram"
	 xmlns="http://www.w3.org/2000/svg" xmlns:xlink="http://www.w3.org/1999/xlink" x="0px" y="0px" viewBox="0 0 500 500"
	 style="enable-background:new 0 0 500 500;" xml:space="preserve">
<metadata>
	<sfw>
		<slices></slices>
		<sliceSourceBounds  bottomLeftOrigin="true" height="500" width="500" x="-237" y="-237"></sliceSourceBounds>
	</sfw>
</metadata>
<path d="M250,500C112.1,500,0,387.9,0,250C0,112.1,112.1,0,250,0c137.9,0,250,112.1,250,250C500.1,387.9,388,500,250,500z
	 M334.4,148.5c-10.2,0-18.5,8.3-18.5,18.5s8.3,18.5,18.5,18.5c10.2,0,18.5-8.3,18.5-18.5C352.8,156.8,344.6,148.5,334.4,148.5z
	 M252.1,172.3c-42.9,0-77.7,34.9-77.7,77.7s34.9,77.7,77.7,77.7s77.7-34.9,77.7-77.7S294.9,172.3,252.1,172.3z M252.1,299.7
	c-27.5,0-49.8-22.3-49.8-49.8s22.3-49.8,49.8-49.8s49.8,22.3,49.8,49.8S279.5,299.7,252.1,299.7z M408.9,185.4
	c0-52.4-42.4-94.8-94.8-94.8H189c-52.4,0-94.8,42.4-94.8,94.8v125.1c0,52.4,42.4,94.8,94.8,94.8h125.1c52.4,0,94.8-42.4,94.8-94.8
	L408.9,185.4L408.9,185.4z M379.2,310.5c0,36-29.1,65.1-65.1,65.1H189c-36,0-65.1-29.1-65.1-65.1V185.4c0-36,29.1-65.1,65.1-65.1
	h125.1c36,0,65.1,29.1,65.1,65.1L379.2,310.5L379.2,310.5z"/>
</svg>
