<svg version="1.1" id="Layer_1"
	 xmlns="http://www.w3.org/2000/svg" xmlns:xlink="http://www.w3.org/1999/xlink" x="0px" y="0px" viewBox="0 0 500 428.6"
	 style="enable-background:new 0 0 500 428.6;" xml:space="preserve">
<style type="text/css">
	.st0{fill:#C7C8CA;}
</style>
<metadata>
	<sfw>
		<slices></slices>
		<sliceSourceBounds  bottomLeftOrigin="true" height="428.6" width="500" x="-211.5" y="-181.3"></sliceSourceBounds>
	</sfw>
</metadata>
<path d="M375.2,328.1c18.5-46.8,46-89.6,68.4-134.1c1.9-3,18.2-24.8,18.1-31.7c-0.6-0.7-1.3-1.3-2-1.9
	c-15.2-7.7-30.5-15.6-45.8-23.2c-44.5-24.1-47.3-25.6-48.5-25.8c-0.3-0.1-3.9,9.8-4.7,11.9c-14,38.4-27.4,77.4-40.9,115.9
	c-0.6,0.3-33.6-5.9-39.3-6.5c4.1-52.3,10.9-104.2,17.7-156.1c8.8-58.2,8.8-58.2,8.6-59.7c-0.4-0.4-1-0.6-1.6-0.8
	c-48.6-7.3-97.8-17.5-147.4-16c10.3,60.7,18.9,121.7,26.4,182.8c-7.4,0.9-16.1,2-23.5,3L138,94.1l-3.2,0.6
	c-33.4,7.3-66.8,15.2-100,24l0.1,2.4c34.8,68.5,67.5,138.1,95.8,209.6c0,0.2-0.1,0.5-0.2,0.8C86.6,340.4,43.6,353.4,0,363.3
	c0.2,0.6,0.5,1.4,0.6,2.1c45.6-9.7,91.4-18.3,137.6-24.2c0-3.8-0.9-7.3-1.8-10.9h-0.1C114,270.4,89.5,211.6,63.4,153.3
	c-12.2-25.6-12.2-25.6-12.4-26.7c27.1-8.1,54.4-15.9,81.7-23c8.7,31.3,19.6,63.1,25.1,95.2c1.2,2,31.5-4,36.5-4.7
	c-5.3-62.1-17.5-124.8-27.7-186c2.7-1.5,11.2,0.5,14.4,0.8c75.2,11.1,75.2,11.1,109.1,16.5c0.7,0.2,1.3,0.4,1.8,0.6
	c0.1,2.7-5.2,45.4-10,90.5c-3.2,40.6-6.6,81.3-9.5,122.1c0.2,0.9,0.3,1.9,0.4,3c16.9,3.4,34.3,4.3,50.5,9.5c1.3,1.2,0.8,1.6,2.6,0.5
	c13.4-42.2,27.4-84.5,42-126.4c0.7,0,1.4,0.1,1.9,0.2c25.6,13,51.4,26.2,77.3,38.6c0.1,0.4,0.1,0.9,0.1,1.4
	c-29.2,52.2-56.6,104.9-80.7,160.2c-0.2,0.4-0.3,0.7-0.5,1.1c-1.2,1.7-5.7,9.6-5,9.7c45.4,5.8,90.4,14.3,135.1,23.9
	c0.2-0.7,0.4-1.5,0.6-2.1C456.2,348.8,416,336.9,375.2,328.1z"/>
<path d="M433.1,171.4c0.6-1,1.2-2.1,1.8-3.1c-0.7-0.4-1.3-0.8-2-1.1c-0.6,1.1-1.3,2.1-1.9,3.2c-8.4-3.7-17.5-6.2-26.3-8.8
	c-0.1,0.1-0.1,0.1,0.2,0.3c8.6,3,16.9,6.3,25.2,9.9c-3.8,6.1-7.9,11.9-12.6,17.4c-2.3,2.4-4.5,5.4-7.2,7.1c0.1,0,0.3-0.1,0.4-0.1
	c8.7-6.6,15.9-14.4,21.6-23.5c0.4,0.2,0.9,0.4,1.3,0.6c0,0.1,0.1,0.1,0.1,0.1l0.7,0.3l0.1-0.2c0.3-0.4,0.6-0.8,0.8-1.2
	C434.5,172.1,433.8,171.8,433.1,171.4z"/>
<path d="M275.6,48.1c0.1-3.2,0-6.3-0.1-9.5c-1.3-0.1-2.5-0.2-3.8,0c0.1,2.9,0.1,5.8,0,8.7c-14-2.5-28.5-3.4-42.5-4.3
	c0,0.1,0,0.1,0.5,0.3c14.2,1.7,28,4,41.9,6.8c-0.3,11-1.3,21.9-3.1,32.9c-1.3,5.2-2,11.2-4.2,16c0.1-0.1,0.3-0.3,0.4-0.5
	c6.4-15.4,10-31.3,10.7-47.6c1.5,0.3,3,0.6,4.6,1c0.1,0,0.2,0.1,0.2,0.1l1.3,0.2l0.1-0.3c0.3-0.8,0.6-1.5,0.9-2.2
	C280.3,49.1,278,48.6,275.6,48.1z"/>
<path d="M268.5,122.2c0.1-3.2,0-6.3-0.1-9.5c-1.3-0.1-2.4-0.2-3.8,0.1c0.1,2.9,0.1,5.8,0,8.6c-14-2.5-28.5-3.4-42.5-4.3
	c0,0.1,0,0.1,0.5,0.3c14.1,1.8,28.1,4,41.9,6.9c-0.3,11-1.3,21.9-3.1,32.8c-1.3,5.2-1.9,11.2-4.2,16.1c0.2-0.2,0.3-0.4,0.4-0.5
	c6.4-15.4,10-31.4,10.7-47.6c1.5,0.3,3.1,0.6,4.6,1c0.1,0,0.2,0,0.2,0l1.3,0.3c0-0.1,0.1-0.3,0.1-0.4c0.3-0.7,0.6-1.5,0.9-2.2
	C273.2,123.2,270.9,122.7,268.5,122.2z"/>
<path d="M249.6,402.3C249.6,402.2,249.6,402.2,249.6,402.3c-0.4-0.1-0.8-0.1-1.2-0.1c-0.4,0-0.8,0-1.3,0c0,0,0,0.1,0,0.1
	c-80.1,2.7-161.3,14.6-238.8,25.9c0,0.4,0,0.4,2.6,0.4c77-8.2,153.4-14.6,231.1-18.6c0.3,0,0.7,0,1-0.1l5.4-0.3l5.4,0.3
	c0.3,0.1,0.7,0.1,1,0.1c77.4,4.1,153.7,10.4,230.4,18.6c2.5,0,2.5,0,2.5-0.4C410.4,416.9,329.5,404.9,249.6,402.3z"/>
<path class="st0" d="M374.6,332.5c0.8-1.9,1.5-3.4,2.4-5.3c3.3-7,6.5-14,9.7-20.9c23.3-47.3,46-93.4,73.4-137.9
	c0.1-0.5,0.2-0.9,0.2-1.4c-30.7-15.8-61.6-31.9-92-48.5c-0.3,0-0.7,0.1-1.2,0.1c-14.3,41.5-27.6,82.8-41.4,124.5l-1.2,3.1
	c-13.1-2.6-27.5-5.3-40.7-7.6l-3-0.6c0-5.3,0-5.3,2.5-32.3c6.7-61.3,15.3-122.6,24.2-183.7c-46-6.9-91.9-11.8-138.4-15.6
	c-1.6,0-3.2,0-4.8,0.1c8.9,58.4,17.9,117.1,25,175.8c0.1,0.4,0.9,6.6,0.9,6.9l-26.2,3.6c-0.1-0.5-1.9-5.8-2-6.1
	c-9-27.7-14.3-57.8-22.3-86c-1.3-0.1-1.3-0.1-32.7,6.7c-21.8,5.6-43.6,11-65.6,16.7c0.1,0.4,0.1,0.7,0.1,1.2
	c33.8,68.5,66.3,137.5,94.6,208.8c0.4,0.1,0.7,0.2,1,0.3c-22.7-69.9-52.9-136.3-83.4-202.7c-1-1.4-0.3-2.3,0.9-2.6
	c3.4-1.1,6.7-2.1,10.1-3.3c8.3-3.1,26.1-9,69.7-21.5c2.3,0.2,2.6,0.2,3.9,1.9c8.4,31,16.9,62.1,24.5,93.2
	c10.7-1.4,21.4-2.7,32.1-4.1c0.1-1.1,0.1-2.2,0-3.2c-6.9-52.1-9.7-69.7-9.6-70.8C178.7,78.9,167.2,12.6,167,10.6l-0.3-2l12.7,0.8
	c38.7,5.8,77.1,14.6,115.6,20.3l2.7,0.4l-0.3,2.1c-8.6,70.2-14.4,140.2-19.4,210.8c15.6,2.5,31.1,6,46.4,10.1c0.9,0,1.7,0,2.5-0.1
	c13.1-42,25-84.2,40.3-125.4l1.1-2.4l4.3,1.6c26.4,13.5,53.1,27,79.9,39.5c0.2,0.1,0.9,0.5,1.1,0.5l-2.1,3.2
	c-0.1,0.1-0.1,0.2-0.2,0.3c-31.3,51.6-55.6,106.1-79.9,161.6C372.5,332.1,373.6,332.1,374.6,332.5z"/>
<path d="M14.3,409.5c-2,0.5-3,0.8-4.9,1.3c-2.7-9.8-4-14.6-6.7-24.4c2-0.6,3-0.8,5.1-1.4c0.3,1,0.4,1.5,0.7,2.5
	c1.7-2.3,4.7-4.2,8.4-5.1c4.1-1,7.9-0.4,8.5,2.4c2.1,8.2,3.1,12.3,5.1,20.5c-2,0.5-3,0.7-4.9,1.2c-2-7.9-3.1-11.9-5.1-19.9
	c-0.4-1.6-2.7-2-5-1.4c-4,1-6.8,3.4-6.1,5.9C11.4,398.6,12.4,402.3,14.3,409.5z"/>
<path d="M53.3,380c1.2,5.5,1.8,8.3,3,13.8c0.8,3.6-3.6,6.7-9.4,8c-5.8,1.3-11,0.4-11.9-3.2c-1.3-5.5-2-8.2-3.3-13.7
	c-0.9-3.6,3.4-6.8,9.4-8.2C47.1,375.3,52.5,376.3,53.3,380z M40,397.4c0.5,2.1,3.3,2.7,6.3,2c3.1-0.7,5.4-2.5,4.9-4.5
	c-1.2-5.5-1.8-8.3-3.1-13.8c-0.5-2.1-3.3-2.7-6.5-2c-3.1,0.7-5.4,2.5-4.9,4.6C38.1,389.2,38.7,391.9,40,397.4z"/>
<path d="M56.4,373.6c2.1-0.4,3.2-0.7,5.3-1.1c4.8,8.3,7.1,12.4,11.7,20.7c0.1,0,0.1,0,0.2,0c1.1-9.4,1.7-14.2,3-23.6
	c2.1-0.4,3.2-0.6,5.3-1c-1.9,10.6-2.8,15.9-4.5,26.6c-2.6,0.5-3.9,0.8-6.6,1.3C65.1,387.3,62.2,382.7,56.4,373.6z"/>
<path d="M108.8,369.8c0.9,5.6,1.3,8.4,2.2,14c0.6,3.6-3.9,6.4-9.8,7.4c-5.9,1-11-0.2-11.6-3.9c-1-5.6-1.5-8.3-2.5-13.9
	c-0.7-3.6,3.8-6.6,9.9-7.6C102.9,364.8,108.2,366.1,108.8,369.8z M94.5,386.4c0.4,2.1,3.1,2.9,6.2,2.3c3.2-0.5,5.5-2.1,5.2-4.2
	c-0.9-5.6-1.3-8.4-2.3-13.9c-0.3-2.1-3.2-2.9-6.4-2.4c-3.2,0.5-5.5,2.2-5.2,4.3C93.1,378,93.6,380.8,94.5,386.4z"/>
<path d="M127.3,350c2.1-0.3,3.1-0.4,5.2-0.7c1.1,9,1.7,13.4,2.8,22.4c1.7-0.2,2.5-0.3,4.2-0.5c2.6-4.8,4-7.2,6.7-12
	c2.2-0.2,3.3-0.4,5.4-0.6c-3.3,5.3-5,8-8.3,13.3c4.5,4.7,6.8,7.1,11.2,11.8c-2.1,0.2-3.2,0.3-5.3,0.6c-3.8-4.3-5.7-6.5-9.5-10.8
	c-1.7,0.2-2.5,0.3-4.2,0.5c0.6,4.7,0.9,7,1.5,11.7c-2,0.2-3,0.4-5,0.6C130.2,371.8,129.3,364.5,127.3,350z"/>
<path d="M175.8,379.1c-1.9,2-5.2,3.3-8.8,3.6c-4.1,0.4-7.6-0.8-7.9-3.6c-0.9-8.4-1.3-12.6-2.1-21c2.1-0.2,3.1-0.3,5.2-0.5
	c0.8,8.2,1.2,12.2,2,20.4c0.2,1.7,2.2,2.4,4.6,2.2c4-0.4,7-2.2,6.7-4.8c-0.6-7.5-0.9-11.3-1.6-18.8c2.1-0.2,3.1-0.2,5.2-0.4
	c0.8,10.1,1.2,15.1,2,25.2c-2,0.2-3,0.2-5,0.4C175.9,380.6,175.9,380.1,175.8,379.1z"/>
<path d="M185.2,344.2c2.1-0.2,3.2-0.2,5.3-0.3c1,14.6,1.4,22,2.4,36.6c-2,0.1-3,0.2-5,0.3C186.7,366.2,186.2,358.8,185.2,344.2z"/>
<path d="M214.3,379.2c-0.8,0.1-2.2,0.4-4.3,0.5c-5.8,0.3-10.6-1.5-10.8-5.3c-0.6-10.3-0.9-15.4-1.5-25.7c2.1-0.1,3.1-0.2,5.2-0.3
	c0.1,2.4,0.2,3.6,0.3,6.1c4-0.2,6-0.3,10-0.5c0,1,0.1,1.5,0.1,2.4c-4,0.2-6,0.2-10,0.5c0.4,6.9,0.5,10.3,0.9,17.2
	c0.1,2.1,2.8,3.3,6.1,3.1c1.6-0.1,3-0.3,3.8-0.5C214.2,377.7,214.2,378.2,214.3,379.2z"/>
<path d="M235.9,376.1c-2,1.9-5.4,2.9-9,3c-4.1,0.1-7.5-1.3-7.6-4.1c-0.3-8.5-0.5-12.7-0.7-21.1c2.1-0.1,3.1-0.1,5.2-0.2
	c0.3,8.2,0.4,12.3,0.6,20.5c0.1,1.7,2,2.5,4.4,2.5c4-0.1,7.1-1.7,7-4.4c-0.1-7.5-0.2-11.3-0.3-18.9c2.1,0,3.1-0.1,5.2-0.1
	c0.1,10.1,0.2,15.2,0.3,25.3c-2,0-3,0-5.1,0.1C235.9,377.6,235.9,377.1,235.9,376.1z"/>
<path d="M247.6,353.3c2.1,0,3.1,0,5.2,0c0,1.5,0,2.2,0,3.7c2-2.5,5-3.9,9.1-3.8c3.1,0,5.5,1.2,5.5,3.3c0,2-0.1,3-0.1,5.1
	c-2.1,0-3.1,0-5.1-0.1c0-1.7,0-2.5,0-4.2c0-1-1.2-1.6-2.7-1.6c-4.3,0-6.7,2.7-6.7,5.8c0,6.9,0,10.3,0,17.2c-2,0-3,0-5.1,0
	C247.7,368.5,247.7,363.4,247.6,353.3z"/>
<path d="M277.7,378.9c-2-0.1-3-0.1-5-0.1c0.2-10.1,0.3-15.2,0.6-25.3c2.1,0,3.1,0.1,5.2,0.1c0,1,0,1.6-0.1,2.6
	c2.2-1.8,5.6-2.7,9.5-2.5c4.2,0.2,7.6,1.9,7.4,4.7c-0.4,8.4-0.6,12.7-1,21.1c-2-0.1-3-0.1-5-0.2c0.3-8.2,0.5-12.3,0.8-20.5
	c0.1-1.6-2-2.7-4.3-2.7c-4.1-0.2-7.4,1.3-7.5,4C278,367.6,277.9,371.4,277.7,378.9z"/>
<path d="M323.2,361.6c-0.4,5.6-0.7,8.4-1.1,14.1c-0.3,3.7-5.3,5.4-11.2,5c-5.9-0.4-10.6-2.7-10.4-6.4c0.3-5.6,0.4-8.5,0.8-14.1
	c0.2-3.7,5.2-5.6,11.3-5.2S323.5,357.9,323.2,361.6z M305.6,374.5c-0.1,2.1,2.4,3.5,5.5,3.7c3.2,0.2,5.8-0.8,6-2.9
	c0.4-5.6,0.6-8.4,1-14.1c0.2-2.1-2.4-3.6-5.7-3.8c-3.2-0.2-5.9,0.9-6,3C306.1,366.1,305.9,368.9,305.6,374.5z"/>
<path d="M347.2,383.5c-2-0.2-3-0.3-5-0.5c1-10.1,1.5-15.1,2.5-25.2c2.1,0.2,3.1,0.3,5.2,0.5c-0.1,1-0.2,1.6-0.3,2.6
	c2.4-1.6,5.8-2.2,9.6-1.8c4.2,0.5,7.4,2.5,7.1,5.2c-1,8.4-1.6,12.6-2.6,21c-2-0.2-3-0.4-5-0.6c1-8.1,1.4-12.2,2.4-20.4
	c0.2-1.6-1.8-2.8-4.1-3.1c-4.1-0.5-7.5,0.8-7.8,3.4C348.4,372.2,348,375.9,347.2,383.5z"/>
<path d="M386.3,385.7c-2.3,1.6-6.2,2-9.7,1.5c-3.9-0.5-6.8-2.4-6.5-5.1c0.2-1.8,0.3-2.7,0.6-4.5c0.5-3.7,5.2-4.8,10.8-4.4
	c2.7,0.2,4,0.3,6.7,0.5c0.3-2,0.4-2.9,0.7-4.9c0.3-2.1-2-3.7-5.3-4.1c-3.3-0.5-6,0.4-6.3,2.5c-0.1,1-0.2,1.5-0.3,2.5
	c-2-0.3-3.1-0.4-5.1-0.7c0.1-1,0.2-1.5,0.3-2.5c0.5-3.7,5.7-5.1,11.8-4.2c6.1,0.8,10.6,3.6,10.1,7.3c-1.2,7.8-1.8,11.7-3,19.5
	c-2-0.3-3-0.5-5-0.7C386.1,387.2,386.2,386.7,386.3,385.7z M382,375.7c-3.3-0.2-6,0.5-6.3,2.6c-0.2,1.5-0.3,2.3-0.5,3.9
	c-0.2,1.6,1.5,2.7,3.7,3c3.6,0.5,7.6-0.5,7.9-3.1c0.3-2.3,0.5-3.5,0.9-5.9C385.4,375.9,384.3,375.8,382,375.7z"/>
<path d="M403.1,382.8c-0.2,1-0.3,1.6-0.4,2.6c-0.3,2,1.8,3.5,4.8,4c3,0.5,5.7-0.2,6-2.2c0.2-1.2,0.3-1.8,0.5-3
	c0.9-4.9-15.5-4.7-14.4-11.7c0.2-0.9,0.2-1.4,0.4-2.3c0.6-3.6,5.6-4.8,11.4-3.8c5.9,1,10.3,3.8,9.6,7.3c-0.2,1.1-0.3,1.6-0.5,2.6
	c-2-0.4-3.1-0.6-5.1-0.9c0.2-1.1,0.3-1.6,0.5-2.6c0.4-2-2-3.5-4.9-4c-3-0.5-5.6,0.2-5.9,2.2c-0.2,0.9-0.2,1.4-0.4,2.3
	c-0.8,4.9,15.6,4.8,14.3,11.8c-0.2,1.2-0.3,1.8-0.6,3c-0.7,3.5-5.8,4.7-11.4,3.7c-5.7-1-10-3.7-9.5-7.2c0.2-1,0.3-1.6,0.4-2.6
	C400.1,382.3,401.1,382.5,403.1,382.8z"/>
<path d="M430.7,384c-0.5,2.4-0.7,3.6-1.2,6.1c-0.4,2.1,1.9,3.8,5,4.4c3.2,0.6,5.9,0,6.4-2.1c0.2-1,0.3-1.5,0.5-2.4c2,0.4,3,0.6,5,1
	c-0.2,1-0.3,1.5-0.5,2.4c-0.8,3.6-6,4.6-11.9,3.4c-5.8-1.2-10.2-4.1-9.5-7.7c1.1-5.6,1.6-8.3,2.7-13.9c0.7-3.6,6-4.8,12-3.6
	c6,1.2,10.5,4.3,9.7,7.9c-0.7,3.1-1,4.7-1.7,7.8C440.5,385.9,437.3,385.2,430.7,384z M431.1,381.6c4.6,0.9,6.9,1.3,11.4,2.3
	c0.5-2.2,0.7-3.2,1.1-5.4c0.5-2.3-1.9-3.9-5.1-4.5c-3.1-0.6-5.9-0.1-6.4,2.2C431.8,378.3,431.6,379.4,431.1,381.6z"/>
<path d="M458.8,364.3c2.1,0.5,3.1,0.7,5.2,1.1c-3.3,14.3-4.9,21.5-8.2,35.8c-2-0.4-3-0.7-5-1.1C454,385.8,455.6,378.6,458.8,364.3z"
	/>
<path d="M452.5,409.5c0.6,0.3,1.7,0.8,3.2,1.1c2.6,0.6,5,0.1,5.4-1.6c2.9-12.4,4.4-18.5,7.3-30.9c2,0.5,3.1,0.7,5.1,1.2
	c-3,12.3-4.5,18.5-7.5,30.8c-0.8,3.2-5.3,4-10.4,2.9c-1.8-0.4-3-0.9-3.6-1.2C452.1,410.9,452.2,410.4,452.5,409.5z M470.7,368.3
	c2.1,0.5,3.1,0.7,5.1,1.2c-0.4,1.8-0.7,2.8-1.1,4.6c-2-0.5-3.1-0.7-5.1-1.2C470,371.1,470.2,370.1,470.7,368.3z"/>
<path d="M481.5,395.3c-0.6,2.4-0.9,3.6-1.5,6c-0.5,2.1,1.7,3.9,4.7,4.7c3.1,0.8,5.9,0.3,6.5-1.7c0.3-1,0.4-1.4,0.7-2.4
	c2,0.5,3,0.8,5,1.3c-0.3,0.9-0.4,1.4-0.7,2.4c-1,3.6-6.3,4.3-12.1,2.8s-10-4.7-9.1-8.2c1.4-5.5,2.1-8.2,3.4-13.7
	c0.9-3.6,6.2-4.5,12.2-2.9c6,1.5,10.3,4.9,9.3,8.5c-0.8,3.1-1.3,4.6-2.1,7.7C491.2,397.8,488,396.9,481.5,395.3z M482.1,392.9
	c4.5,1.1,6.8,1.7,11.3,2.9c0.6-2.1,0.9-3.2,1.4-5.3c0.6-2.2-1.7-4-4.9-4.8c-3.1-0.8-5.9-0.4-6.5,1.8
	C482.9,389.7,482.6,390.8,482.1,392.9z"/>
</svg>
